<svg width="22" height="21" viewBox="0 0 22 21" fill="none" xmlns="http://www.w3.org/2000/svg">
<path d="M10.9933 20.6389L9.45166 19.2494C7.58203 17.5879 6.0399 16.1626 4.82527 14.9733C3.61046 13.7842 2.65472 12.7258 1.95805 11.798C1.26139 10.8703 0.777682 10.0201 0.506941 9.24749C0.236201 8.47508 0.10083 7.67962 0.10083 6.8611C0.10083 5.14665 0.687219 3.70249 1.86 2.5286C3.03278 1.35452 4.47537 0.767487 6.18777 0.767487C7.09055 0.767487 7.96565 0.953042 8.81305 1.32415C9.66065 1.69545 10.3874 2.22184 10.9933 2.90332C11.5993 2.22184 12.326 1.69545 13.1736 1.32415C14.0212 0.953042 14.8963 0.767487 15.7989 0.767487C17.5152 0.767487 18.9609 1.35452 20.1361 2.5286C21.3115 3.70249 21.8992 5.14665 21.8992 6.8611C21.8992 7.67517 21.7695 8.45915 21.5103 9.21304C21.251 9.96712 20.7719 10.8023 20.0731 11.7186C19.3742 12.6349 18.4116 13.6979 17.1853 14.9078C15.9592 16.1178 14.3906 17.5835 12.4794 19.305L10.9933 20.6389ZM10.9933 17.5392C12.7067 16.0021 14.1156 14.6975 15.22 13.6253C16.3246 12.553 17.2023 11.6175 17.8531 10.8186C18.5038 10.0197 18.9566 9.31063 19.2114 8.69138C19.4662 8.07212 19.5936 7.46212 19.5936 6.86138C19.5936 5.78638 19.2299 4.88619 18.5025 4.16082C17.7749 3.43563 16.8748 3.07304 15.8022 3.07304C15.1696 3.07304 14.5754 3.2073 14.0194 3.47582C13.4633 3.74434 12.9816 4.11934 12.5742 4.60082L11.6019 5.73971H10.3914L9.41916 4.60082C9.01379 4.11934 8.52222 3.74434 7.94444 3.47582C7.36666 3.2073 6.78176 3.07304 6.18972 3.07304C5.1212 3.07304 4.22463 3.43563 3.5 4.16082C2.77537 4.88619 2.41305 5.78628 2.41305 6.8611C2.41305 7.46665 2.53222 8.06758 2.77055 8.66388C3.0087 9.26017 3.44407 9.95286 4.07666 10.7419C4.70907 11.5312 5.58 12.4654 6.68944 13.5447C7.7987 14.624 9.23333 15.9554 10.9933 17.5392Z" fill="#C6C7CA"/>
</svg>
