<svg width="22" height="20" viewBox="0 0 22 20" fill="none" xmlns="http://www.w3.org/2000/svg">
<path d="M11.0002 19.3333L9.61127 18.0833C7.75942 16.4352 6.23164 15.0231 5.02794 13.8472C3.82424 12.6713 2.87516 11.625 2.18072 10.7083C1.48627 9.79167 1.00479 8.9537 0.736274 8.19444C0.467755 7.43518 0.333496 6.65741 0.333496 5.86111C0.333496 4.21296 0.898311 2.82407 2.02794 1.69444C3.15757 0.564815 4.54646 0 6.19461 0C7.10201 0 7.98164 0.194444 8.8335 0.583333C9.68535 0.972222 10.4076 1.51852 11.0002 2.22222C11.5928 1.51852 12.315 0.972222 13.1668 0.583333C14.0187 0.194444 14.8983 0 15.8057 0C17.4539 0 18.8428 0.564815 19.9724 1.69444C21.102 2.82407 21.6668 4.21296 21.6668 5.86111C21.6668 6.65741 21.5372 7.42593 21.2779 8.16667C21.0187 8.90741 20.5418 9.73148 19.8474 10.6389C19.1529 11.5463 18.1992 12.5972 16.9863 13.7917C15.7733 14.9861 14.2224 16.4352 12.3335 18.1389L11.0002 19.3333Z" fill="#ED7B7B"/>
</svg>
