<svg width="44" height="44" viewBox="0 0 44 44" fill="none" xmlns="http://www.w3.org/2000/svg">
<path fill-rule="evenodd" clip-rule="evenodd" d="M22.0003 11.0917C29.0934 11.0917 34.8336 16.8227 34.8336 23.8792C34.8327 26.1635 34.2194 28.4058 33.0577 30.3727C31.896 32.3395 30.2282 33.959 28.2281 35.0625C27.4141 35.5132 26.5535 35.8741 25.6614 36.1387C25.1951 36.2768 24.8028 36.5944 24.5707 37.0218C24.4558 37.2334 24.3837 37.4656 24.3585 37.7051C24.3333 37.9445 24.3556 38.1866 24.4239 38.4175C24.4923 38.6484 24.6055 38.8636 24.757 39.0507C24.9086 39.2378 25.0955 39.3933 25.3071 39.5082C25.7344 39.7403 26.2365 39.7931 26.7028 39.655C27.8503 39.3148 28.9575 38.8506 30.0046 38.2708C32.5776 36.8501 34.7227 34.7657 36.2169 32.2347C37.711 29.7036 38.4995 26.8183 38.5003 23.8792C38.5003 14.7858 31.1083 7.42685 22.0003 7.42685C19.7269 7.42685 17.5544 7.88518 15.5799 8.71935C15.3581 8.81288 15.1568 8.9492 14.9876 9.12052C14.8185 9.29183 14.6847 9.49479 14.594 9.7178C14.5032 9.94082 14.4573 10.1795 14.4588 10.4203C14.4603 10.6611 14.5092 10.8992 14.6028 11.121C14.6963 11.3429 14.8326 11.5441 15.0039 11.7133C15.1753 11.8825 15.3782 12.0163 15.6012 12.107C15.8242 12.1977 16.063 12.2437 16.3037 12.2421C16.5445 12.2406 16.7826 12.1917 17.0044 12.0982C18.5857 11.4321 20.2845 11.0898 22.0003 11.0917ZM23.1003 38.6137C23.1263 38.1285 22.9586 37.6528 22.6341 37.2912C22.3096 36.9296 21.8548 36.7115 21.3696 36.685C19.6879 36.5959 18.0402 36.1766 16.5204 35.4512C16.3023 35.3407 16.0643 35.2749 15.8204 35.2577C15.5765 35.2406 15.3316 35.2724 15.1002 35.3513C14.8687 35.4302 14.6554 35.5546 14.4728 35.7172C14.2901 35.8798 14.1419 36.0772 14.0367 36.298C13.9315 36.5187 13.8716 36.7583 13.8604 37.0025C13.8492 37.2468 13.8869 37.4908 13.9715 37.7203C14.056 37.9497 14.1855 38.1599 14.3525 38.3386C14.5195 38.5172 14.7205 38.6606 14.9438 38.7603C16.8957 39.692 19.0118 40.2309 21.1716 40.3462C21.6571 40.3722 22.133 40.2042 22.4947 39.8793C22.8564 39.5544 23.0742 39.0992 23.1003 38.6137ZM9.54828 15.9262C9.10845 15.7195 8.60456 15.6959 8.14734 15.8606C7.69012 16.0252 7.31699 16.3647 7.10994 16.8043C6.18706 18.7599 5.65758 20.8779 5.55161 23.0377C5.53957 23.2782 5.57502 23.5187 5.65594 23.7455C5.73686 23.9724 5.86167 24.181 6.02322 24.3596C6.18478 24.5382 6.37993 24.6832 6.59754 24.7864C6.81514 24.8895 7.05093 24.9488 7.29144 24.9608C7.53196 24.9729 7.77249 24.9374 7.9993 24.8565C8.22612 24.7756 8.43477 24.6508 8.61336 24.4892C8.79194 24.3277 8.93695 24.1325 9.04011 23.9149C9.14328 23.6973 9.20257 23.4615 9.21461 23.221C9.29711 21.538 9.70961 19.8862 10.4246 18.3663C10.5273 18.1486 10.5861 17.9127 10.5976 17.6722C10.6091 17.4318 10.5732 17.1914 10.4918 16.9648C10.4104 16.7382 10.2852 16.5298 10.1233 16.3516C9.96145 16.1734 9.76604 16.0289 9.54828 15.9262ZM12.3789 35.0515C12.7401 34.7262 12.9573 34.2707 12.9828 33.7853C13.0082 33.2998 12.8398 32.8242 12.5146 32.4629C11.3889 31.2094 10.5172 29.7493 9.94794 28.1637C9.78305 27.7073 9.44392 27.3348 9.00489 27.1281C8.56586 26.9213 8.06275 26.897 7.60585 27.0605C7.14895 27.2241 6.77553 27.5621 6.56744 28.0005C6.35936 28.4389 6.33358 28.942 6.49578 29.3993C7.22612 31.4343 8.34504 33.3079 9.79028 34.9158C10.1156 35.277 10.5711 35.4942 11.0565 35.5197C11.542 35.5451 12.0176 35.3767 12.3789 35.0515Z" fill="#BABABA"/>
<path fill-rule="evenodd" clip-rule="evenodd" d="M18.6889 4.09385C18.5041 4.00162 18.303 3.94673 18.097 3.93229C17.891 3.91786 17.6842 3.94417 17.4884 4.00973C17.2926 4.07528 17.1116 4.17879 16.9558 4.31434C16.8001 4.44988 16.6725 4.61481 16.5805 4.79968L14.1404 9.71851C14.0242 9.95309 13.9555 10.2083 13.938 10.4694C13.9206 10.7306 13.9548 10.9927 14.0388 11.2406C14.1227 11.4885 14.2547 11.7175 14.4273 11.9143C14.5998 12.1112 14.8094 12.2721 15.0442 12.3878L19.9777 14.8243C20.1635 14.9247 20.3677 14.9865 20.5779 15.0061C20.7882 15.0258 21.0002 15.0029 21.2014 14.9387C21.4026 14.8746 21.5888 14.7705 21.7489 14.6328C21.9089 14.495 22.0396 14.3265 22.1331 14.1371C22.2265 13.9477 22.2808 13.7415 22.2928 13.5306C22.3047 13.3198 22.274 13.1087 22.2026 12.91C22.1311 12.7113 22.0203 12.5291 21.8768 12.3741C21.7333 12.2192 21.56 12.0948 21.3674 12.0083L17.4715 10.0833L19.402 6.20035C19.4938 6.01535 19.5482 5.81408 19.5621 5.60806C19.576 5.40203 19.5491 5.19528 19.483 4.99964C19.417 4.804 19.313 4.6233 19.177 4.46788C19.0411 4.31245 18.874 4.18535 18.6889 4.09385Z" fill="#BABABA"/>
</svg>
