<svg width="188" height="178" viewBox="0 0 188 178" fill="none" xmlns="http://www.w3.org/2000/svg">
<path d="M47.3332 177.333C34.4221 177.333 23.4181 172.782 14.3212 163.679C5.22429 154.576 0.672732 143.572 0.66651 130.667C0.660288 117.762 5.21184 106.758 14.3212 97.6547C23.4305 88.5516 34.4345 84 47.3332 84C60.2318 84 71.239 88.5516 80.3545 97.6547C89.4701 106.758 94.0185 117.762 93.9999 130.667C93.9812 143.572 89.4296 154.579 80.3452 163.688C71.2607 172.797 60.2567 177.346 47.3332 177.333ZM174.267 168L114.533 108.267C112.667 106.244 110.685 104.185 108.588 102.088C106.491 99.9911 104.428 98.0062 102.4 96.1334C108.311 92.4 113.055 87.4222 116.633 81.2C120.211 74.9778 122 68.1333 122 60.6667C122 49 117.918 39.0849 109.755 30.9213C101.591 22.7578 91.6727 18.6729 79.9999 18.6667C68.327 18.6604 58.4118 22.7453 50.2545 30.9213C42.0972 39.0973 38.0123 49.0125 37.9998 60.6667C37.9998 61.6 38.0403 62.496 38.1212 63.3547C38.2021 64.2133 38.3172 65.1062 38.4665 66.0333C35.6665 66.3445 32.5958 66.9667 29.2545 67.9C25.9132 68.8333 22.9172 69.9222 20.2665 71.1667C19.9554 69.4556 19.7221 67.7445 19.5665 66.0333C19.411 64.3222 19.3332 62.5333 19.3332 60.6667C19.3332 43.7111 25.207 29.3627 36.9545 17.6213C48.7021 5.88 63.0505 0.00622716 79.9999 4.93827e-06C96.9492 -0.00621728 111.301 5.86756 123.055 17.6213C134.808 29.3751 140.679 43.7236 140.667 60.6667C140.667 67.3556 139.618 73.696 137.521 79.688C135.424 85.68 132.506 91.1618 128.767 96.1334L187.333 154.933L174.267 168ZM30.7665 153.767L47.3332 137.2L63.6665 153.767L70.4332 147.233L53.8665 130.667L70.4332 114.1L63.8998 107.567L47.3332 124.133L30.7665 107.567L24.2332 114.1L40.7998 130.667L24.2332 147.233L30.7665 153.767Z" fill="#EEEEEE"/>
</svg>
