<svg width="188" height="179" viewBox="0 0 188 179" fill="none" xmlns="http://www.w3.org/2000/svg">
<path d="M159.333 103.666V131.666H187.333V150.333H159.333V178.333H140.666V150.333H112.666V131.666H140.666V103.666H159.333ZM170.934 17.3983C181.044 27.5064 186.905 41.0983 187.317 55.3886C187.728 69.6789 182.658 83.5855 173.146 94.2583L159.893 81.0236C172.306 66.7996 171.653 44.4929 157.718 30.5863C150.974 23.8529 141.909 19.954 132.382 19.6885C122.855 19.423 113.588 22.811 106.478 29.1583L94.0184 40.3396L81.5491 29.1676C74.4714 22.8386 65.2481 19.4441 55.7561 19.6749C46.2641 19.9056 37.2167 23.7443 30.4549 30.4098C23.6931 37.0753 19.725 46.0667 19.3581 55.5544C18.9911 65.0421 22.253 74.3131 28.4798 81.4809L107.178 160.31L93.9998 173.526L14.8531 94.2676C5.32616 83.5899 0.248335 69.6701 0.662111 55.3661C1.07589 41.0621 6.94987 27.4592 17.0781 17.35C27.2064 7.24087 40.8204 1.39259 55.1252 1.00583C69.4299 0.619068 83.3401 5.72317 93.9998 15.2703C104.666 5.7284 118.58 0.632115 132.886 1.02786C147.192 1.4236 160.812 7.28133 170.934 17.3983Z" fill="#EEEEEE"/>
</svg>
